<svg width="38" height="38" viewBox="0 0 38 38" fill="none" xmlns="http://www.w3.org/2000/svg">
<path fill-rule="evenodd" clip-rule="evenodd" d="M11.057 0.652983C13.0253 0.562372 13.6529 0.542236 18.6667 0.542236C23.6805 0.542236 24.3081 0.56405 26.2747 0.652983C28.2412 0.741916 29.5836 1.0557 30.7582 1.51043C31.9882 1.97523 33.104 2.7018 34.0269 3.64147C34.9666 4.56268 35.6915 5.67687 36.1546 6.9085C36.611 8.08309 36.9231 9.42548 37.0137 11.3887C37.1044 13.3603 37.1245 13.9879 37.1245 19.0001C37.1245 24.0139 37.1027 24.6414 37.0137 26.6097C36.9248 28.5729 36.611 29.9153 36.1546 31.0899C35.6915 32.3217 34.9654 33.4378 34.0269 34.3603C33.104 35.3 31.9882 36.0249 30.7582 36.488C29.5836 36.9444 28.2412 37.2565 26.278 37.3471C24.3081 37.4377 23.6805 37.4579 18.6667 37.4579C13.6529 37.4579 13.0253 37.4361 11.057 37.3471C9.09378 37.2582 7.7514 36.9444 6.57681 36.488C5.34504 36.0248 4.22901 35.2987 3.30642 34.3603C2.36739 33.4385 1.64071 32.323 1.17706 31.0916C0.722325 29.917 0.41022 28.5746 0.319609 26.6114C0.228998 24.6398 0.208862 24.0122 0.208862 19.0001C0.208862 13.9862 0.230676 13.3587 0.319609 11.3921C0.408542 9.42548 0.722325 8.08309 1.17706 6.9085C1.64139 5.677 2.36863 4.56153 3.3081 3.63979C4.22938 2.70096 5.34428 1.9743 6.57513 1.51043C7.74972 1.0557 9.09211 0.743594 11.0553 0.652983H11.057ZM26.1253 3.97539C24.1789 3.88646 23.5949 3.868 18.6667 3.868C13.7384 3.868 13.1545 3.88646 11.208 3.97539C9.40757 4.05761 8.43098 4.35797 7.77992 4.61135C6.91912 4.94694 6.3033 5.34462 5.65727 5.99065C5.04489 6.58642 4.5736 7.31169 4.27797 8.1133C4.0246 8.76435 3.72424 9.74094 3.64202 11.5414C3.55308 13.4879 3.53463 14.0718 3.53463 19.0001C3.53463 23.9283 3.55308 24.5122 3.64202 26.4587C3.72424 28.2592 4.0246 29.2358 4.27797 29.8868C4.5733 30.6872 5.04481 31.4138 5.65727 32.0095C6.25296 32.6219 6.97952 33.0934 7.77992 33.3888C8.43098 33.6421 9.40757 33.9425 11.208 34.0247C13.1545 34.1136 13.7368 34.1321 18.6667 34.1321C23.5966 34.1321 24.1789 34.1136 26.1253 34.0247C27.9258 33.9425 28.9024 33.6421 29.5534 33.3888C30.4142 33.0532 31.0301 32.6555 31.6761 32.0095C32.2885 31.4138 32.7601 30.6872 33.0554 29.8868C33.3088 29.2358 33.6091 28.2592 33.6913 26.4587C33.7803 24.5122 33.7987 23.9283 33.7987 19.0001C33.7987 14.0718 33.7803 13.4879 33.6913 11.5414C33.6091 9.74094 33.3088 8.76435 33.0554 8.1133C32.7198 7.25249 32.3221 6.63667 31.6761 5.99065C31.0803 5.3783 30.355 4.90702 29.5534 4.61135C28.9024 4.35797 27.9258 4.05761 26.1253 3.97539ZM16.3091 24.6901C17.6258 25.2382 19.0918 25.3121 20.457 24.8994C21.8221 24.4866 23.0016 23.6127 23.7939 22.4269C24.5863 21.2411 24.9424 19.817 24.8015 18.3978C24.6605 16.9786 24.0312 15.6524 23.021 14.6457C22.3771 14.0021 21.5985 13.5094 20.7412 13.2029C19.884 12.8964 18.9694 12.7837 18.0634 12.8731C17.1574 12.9625 16.2825 13.2516 15.5017 13.7197C14.7208 14.1877 14.0535 14.8231 13.5477 15.5801C13.0418 16.337 12.7102 17.1967 12.5765 18.0972C12.4428 18.9978 12.5104 19.9167 12.7745 20.788C13.0386 21.6592 13.4926 22.4611 14.1038 23.1358C14.715 23.8105 15.4681 24.3414 16.3091 24.6901ZM11.9581 12.2915C12.8391 11.4105 13.885 10.7117 15.036 10.2349C16.1871 9.75809 17.4208 9.51269 18.6667 9.51269C19.9126 9.51269 21.1463 9.75809 22.2973 10.2349C23.4484 10.7117 24.4943 11.4105 25.3753 12.2915C26.2562 13.1725 26.9551 14.2183 27.4319 15.3694C27.9086 16.5205 28.154 17.7542 28.154 19.0001C28.154 20.2459 27.9086 21.4796 27.4319 22.6307C26.9551 23.7818 26.2562 24.8276 25.3753 25.7086C23.596 27.4879 21.1829 28.4874 18.6667 28.4874C16.1505 28.4874 13.7373 27.4879 11.9581 25.7086C10.1789 23.9294 9.17932 21.5163 9.17932 19.0001C9.17932 16.4838 10.1789 14.0707 11.9581 12.2915ZM30.2582 10.9256C30.4765 10.7197 30.6513 10.472 30.7722 10.1973C30.893 9.92261 30.9576 9.62645 30.962 9.32636C30.9663 9.02627 30.9105 8.72836 30.7976 8.45025C30.6848 8.17215 30.5173 7.91951 30.3051 7.70729C30.0929 7.49507 29.8402 7.32759 29.5621 7.21477C29.284 7.10194 28.9861 7.04606 28.686 7.05043C28.3859 7.05481 28.0898 7.11935 27.8151 7.24024C27.5404 7.36112 27.2927 7.53589 27.0868 7.75421C26.6863 8.17879 26.467 8.74274 26.4755 9.32636C26.484 9.90998 26.7196 10.4673 27.1324 10.88C27.5451 11.2928 28.1024 11.5284 28.686 11.5369C29.2696 11.5454 29.8336 11.3261 30.2582 10.9256Z" fill="#00B2CD"/>
</svg>
