<svg width="38" height="38" viewBox="0 0 38 38" fill="none" xmlns="http://www.w3.org/2000/svg">
<path fill-rule="evenodd" clip-rule="evenodd" d="M0.475464 3.62637C0.475464 2.80841 0.800399 2.02395 1.37879 1.44556C1.95717 0.867175 2.74163 0.54224 3.5596 0.54224H34.3036C34.709 0.541578 35.1105 0.620876 35.4851 0.775592C35.8598 0.930308 36.2003 1.15741 36.4871 1.44388C36.7739 1.73036 37.0013 2.07059 37.1565 2.44509C37.3116 2.81959 37.3913 3.22101 37.3911 3.62637V34.3704C37.3915 34.7758 37.312 35.1774 37.1571 35.552C37.0022 35.9267 36.775 36.2672 36.4884 36.554C36.2018 36.8407 35.8614 37.0682 35.4868 37.2233C35.1122 37.3784 34.7107 37.4581 34.3053 37.4579H3.5596C3.15444 37.4579 2.75326 37.378 2.37896 37.2229C2.00467 37.0678 1.6646 36.8405 1.37819 36.554C1.09178 36.2674 0.864642 35.9272 0.709748 35.5528C0.554855 35.1784 0.475244 34.7772 0.475464 34.3721V3.62637ZM15.0873 14.6172H20.0861V17.1274C20.8076 15.6844 22.6534 14.3856 25.4271 14.3856C30.7446 14.3856 32.0048 17.26 32.0048 22.5339V32.3031H26.6235V23.7353C26.6235 20.7317 25.9019 19.037 24.0696 19.037C21.5274 19.037 20.4703 20.8643 20.4703 23.7353V32.3031H15.0873V14.6172ZM5.85844 32.0732H11.2414V14.3856H5.85844V32.0715V32.0732ZM12.0116 8.6167C12.0217 9.07759 11.9397 9.53587 11.7704 9.96464C11.601 10.3934 11.3477 10.784 11.0253 11.1136C10.703 11.4431 10.318 11.705 9.89307 11.8837C9.46813 12.0625 9.01177 12.1546 8.55076 12.1546C8.08975 12.1546 7.63339 12.0625 7.20845 11.8837C6.78351 11.705 6.39856 11.4431 6.07618 11.1136C5.75381 10.784 5.50051 10.3934 5.33115 9.96464C5.16178 9.53587 5.07977 9.07759 5.08992 8.6167C5.10984 7.71202 5.48321 6.85111 6.13008 6.21833C6.77694 5.58556 7.64586 5.23123 8.55076 5.23123C9.45566 5.23123 10.3246 5.58556 10.9714 6.21833C11.6183 6.85111 11.9917 7.71202 12.0116 8.6167Z" fill="#00B2CD"/>
</svg>
