<svg width="273" height="61" viewBox="0 0 273 61" fill="none" xmlns="http://www.w3.org/2000/svg">
<path d="M2.772 26V0.619998H13.788C15.66 0.619998 17.244 0.931999 18.54 1.556C19.836 2.18 20.82 3.08 21.492 4.256C22.164 5.432 22.5 6.86 22.5 8.54C22.5 10.196 22.164 11.624 21.492 12.824C20.82 14 19.836 14.912 18.54 15.56C17.244 16.184 15.66 16.496 13.788 16.496H7.38V26H2.772ZM7.38 12.86H13.068C14.7 12.86 15.936 12.5 16.776 11.78C17.616 11.036 18.036 9.956 18.036 8.54C18.036 7.124 17.616 6.056 16.776 5.336C15.936 4.616 14.7 4.256 13.068 4.256H7.38V12.86ZM31.0444 26.36C28.9564 26.36 27.4084 25.796 26.4004 24.668C25.4164 23.516 24.9244 21.836 24.9244 19.628V0.619998H29.4244V19.412C29.4244 20.108 29.5204 20.708 29.7124 21.212C29.9284 21.692 30.2404 22.052 30.6484 22.292C31.0564 22.532 31.5604 22.652 32.1604 22.652C32.4244 22.652 32.6884 22.64 32.9524 22.616C33.2164 22.592 33.4684 22.544 33.7084 22.472L33.6364 26.036C33.2044 26.132 32.7724 26.204 32.3404 26.252C31.9324 26.324 31.5004 26.36 31.0444 26.36ZM41.3165 26.36C40.0445 26.36 38.9045 26.12 37.8965 25.64C36.9125 25.136 36.1325 24.464 35.5565 23.624C35.0045 22.784 34.7285 21.836 34.7285 20.78C34.7285 19.484 35.0645 18.464 35.7365 17.72C36.4085 16.952 37.5005 16.4 39.0125 16.064C40.5245 15.728 42.5525 15.56 45.0965 15.56H46.8965V18.152H45.1325C44.0045 18.152 43.0565 18.2 42.2885 18.296C41.5205 18.368 40.8965 18.5 40.4165 18.692C39.9605 18.86 39.6245 19.1 39.4085 19.412C39.2165 19.724 39.1205 20.108 39.1205 20.564C39.1205 21.356 39.3965 22.004 39.9485 22.508C40.5005 23.012 41.2685 23.264 42.2525 23.264C43.0445 23.264 43.7405 23.084 44.3405 22.724C44.9645 22.34 45.4565 21.824 45.8165 21.176C46.1765 20.528 46.3565 19.784 46.3565 18.944V14.804C46.3565 13.604 46.0925 12.74 45.5645 12.212C45.0365 11.684 44.1485 11.42 42.9005 11.42C41.9165 11.42 40.9085 11.576 39.8765 11.888C38.8445 12.176 37.8005 12.632 36.7445 13.256L35.4485 10.196C36.0725 9.764 36.8045 9.392 37.6445 9.08C38.5085 8.744 39.4085 8.492 40.3445 8.324C41.3045 8.132 42.2045 8.036 43.0445 8.036C44.7725 8.036 46.1885 8.3 47.2925 8.828C48.4205 9.356 49.2605 10.16 49.8125 11.24C50.3645 12.296 50.6405 13.664 50.6405 15.344V26H46.4285V22.256H46.7165C46.5485 23.096 46.2125 23.828 45.7085 24.452C45.2285 25.052 44.6165 25.52 43.8725 25.856C43.1285 26.192 42.2765 26.36 41.3165 26.36ZM54.308 26V8.396H58.7V11.924H58.304C58.832 10.652 59.648 9.692 60.752 9.044C61.88 8.372 63.152 8.036 64.568 8.036C65.984 8.036 67.148 8.3 68.06 8.828C68.972 9.356 69.656 10.16 70.112 11.24C70.568 12.296 70.796 13.64 70.796 15.272V26H66.296V15.488C66.296 14.576 66.176 13.832 65.936 13.256C65.72 12.68 65.372 12.26 64.892 11.996C64.436 11.708 63.848 11.564 63.128 11.564C62.264 11.564 61.508 11.756 60.86 12.14C60.212 12.5 59.708 13.028 59.348 13.724C58.988 14.396 58.808 15.188 58.808 16.1V26H54.308ZM83.1426 26.36C81.1506 26.36 79.4346 25.988 77.9946 25.244C76.5546 24.5 75.4386 23.444 74.6466 22.076C73.8786 20.708 73.4946 19.088 73.4946 17.216C73.4946 15.392 73.8666 13.796 74.6106 12.428C75.3786 11.06 76.4226 9.992 77.7426 9.224C79.0866 8.432 80.6106 8.036 82.3146 8.036C83.9946 8.036 85.4346 8.396 86.6346 9.116C87.8346 9.836 88.7586 10.856 89.4066 12.176C90.0786 13.496 90.4146 15.068 90.4146 16.892V18.224H77.1306V15.632H87.2466L86.6706 16.172C86.6706 14.54 86.3106 13.292 85.5906 12.428C84.8706 11.54 83.8386 11.096 82.4946 11.096C81.4866 11.096 80.6226 11.336 79.9026 11.816C79.2066 12.272 78.6666 12.932 78.2826 13.796C77.9226 14.636 77.7426 15.644 77.7426 16.82V17.072C77.7426 18.392 77.9466 19.484 78.3546 20.348C78.7626 21.212 79.3746 21.86 80.1906 22.292C81.0066 22.724 82.0146 22.94 83.2146 22.94C84.1986 22.94 85.1826 22.796 86.1666 22.508C87.1506 22.196 88.0506 21.716 88.8666 21.068L90.1266 24.092C89.2866 24.788 88.2306 25.34 86.9586 25.748C85.6866 26.156 84.4146 26.36 83.1426 26.36ZM101.072 26.36C98.72 26.36 96.968 25.772 95.816 24.596C94.664 23.42 94.088 21.704 94.088 19.448V11.78H90.704V8.396H94.088V3.14H98.588V8.396H103.916V11.78H98.588V19.196C98.588 20.348 98.84 21.212 99.344 21.788C99.848 22.364 100.664 22.652 101.792 22.652C102.128 22.652 102.476 22.616 102.836 22.544C103.196 22.448 103.568 22.352 103.952 22.256L104.636 25.568C104.204 25.808 103.652 26 102.98 26.144C102.332 26.288 101.696 26.36 101.072 26.36ZM111.72 26.36C110.448 26.36 109.308 26.12 108.3 25.64C107.316 25.136 106.536 24.464 105.96 23.624C105.408 22.784 105.132 21.836 105.132 20.78C105.132 19.484 105.468 18.464 106.14 17.72C106.812 16.952 107.904 16.4 109.416 16.064C110.928 15.728 112.956 15.56 115.5 15.56H117.3V18.152H115.536C114.408 18.152 113.46 18.2 112.692 18.296C111.924 18.368 111.3 18.5 110.82 18.692C110.364 18.86 110.028 19.1 109.812 19.412C109.62 19.724 109.524 20.108 109.524 20.564C109.524 21.356 109.8 22.004 110.352 22.508C110.904 23.012 111.672 23.264 112.656 23.264C113.448 23.264 114.144 23.084 114.744 22.724C115.368 22.34 115.86 21.824 116.22 21.176C116.58 20.528 116.76 19.784 116.76 18.944V14.804C116.76 13.604 116.496 12.74 115.968 12.212C115.44 11.684 114.552 11.42 113.304 11.42C112.32 11.42 111.312 11.576 110.28 11.888C109.248 12.176 108.204 12.632 107.148 13.256L105.852 10.196C106.476 9.764 107.208 9.392 108.048 9.08C108.912 8.744 109.812 8.492 110.748 8.324C111.708 8.132 112.608 8.036 113.448 8.036C115.176 8.036 116.592 8.3 117.696 8.828C118.824 9.356 119.664 10.16 120.216 11.24C120.768 12.296 121.044 13.664 121.044 15.344V26H116.832V22.256H117.12C116.952 23.096 116.616 23.828 116.112 24.452C115.632 25.052 115.02 25.52 114.276 25.856C113.532 26.192 112.68 26.36 111.72 26.36ZM124.712 26V8.396H129.104V12.644H128.744C129.08 11.204 129.74 10.112 130.724 9.368C131.708 8.6 133.016 8.156 134.648 8.036L136.016 7.928L136.304 11.744L133.712 11.996C132.248 12.14 131.144 12.596 130.4 13.364C129.656 14.108 129.284 15.164 129.284 16.532V26H124.712ZM140.583 32.48L144.255 24.38V26.252L136.515 8.396H141.303L146.775 22.04H145.695L151.275 8.396H155.811L145.227 32.48H140.583ZM166.284 26V0.619998H170.892V26H166.284ZM175.149 26V8.396H179.541V11.924H179.145C179.457 11.108 179.889 10.412 180.441 9.836C180.993 9.26 181.653 8.816 182.421 8.504C183.189 8.192 184.041 8.036 184.977 8.036C186.393 8.036 187.557 8.372 188.469 9.044C189.381 9.716 190.017 10.748 190.377 12.14H189.873C190.353 10.868 191.145 9.872 192.249 9.152C193.353 8.408 194.625 8.036 196.065 8.036C197.409 8.036 198.513 8.3 199.377 8.828C200.265 9.356 200.925 10.16 201.357 11.24C201.789 12.296 202.005 13.64 202.005 15.272V26H197.505V15.452C197.505 14.108 197.277 13.124 196.821 12.5C196.389 11.876 195.645 11.564 194.589 11.564C193.821 11.564 193.149 11.756 192.573 12.14C191.997 12.5 191.553 13.028 191.241 13.724C190.953 14.42 190.809 15.26 190.809 16.244V26H186.309V15.452C186.309 14.108 186.081 13.124 185.625 12.5C185.193 11.876 184.461 11.564 183.429 11.564C182.637 11.564 181.953 11.756 181.377 12.14C180.825 12.5 180.393 13.028 180.081 13.724C179.793 14.42 179.649 15.26 179.649 16.244V26H175.149ZM205.747 32.48V8.396H210.139V12.104H209.779C210.139 10.88 210.871 9.896 211.975 9.152C213.103 8.408 214.411 8.036 215.899 8.036C217.435 8.036 218.779 8.408 219.931 9.152C221.107 9.896 222.019 10.952 222.667 12.32C223.315 13.664 223.639 15.284 223.639 17.18C223.639 19.052 223.315 20.684 222.667 22.076C222.019 23.444 221.119 24.5 219.967 25.244C218.815 25.988 217.459 26.36 215.899 26.36C214.435 26.36 213.151 26 212.047 25.28C210.943 24.536 210.199 23.576 209.815 22.4H210.247V32.48H205.747ZM214.639 22.94C215.983 22.94 217.063 22.46 217.879 21.5C218.695 20.516 219.103 19.076 219.103 17.18C219.103 15.26 218.695 13.832 217.879 12.896C217.063 11.936 215.983 11.456 214.639 11.456C213.295 11.456 212.215 11.936 211.399 12.896C210.583 13.832 210.175 15.26 210.175 17.18C210.175 19.076 210.583 20.516 211.399 21.5C212.215 22.46 213.295 22.94 214.639 22.94ZM232.229 26.36C230.957 26.36 229.817 26.12 228.809 25.64C227.825 25.136 227.045 24.464 226.469 23.624C225.917 22.784 225.641 21.836 225.641 20.78C225.641 19.484 225.977 18.464 226.649 17.72C227.321 16.952 228.413 16.4 229.925 16.064C231.437 15.728 233.465 15.56 236.009 15.56H237.809V18.152H236.045C234.917 18.152 233.969 18.2 233.201 18.296C232.433 18.368 231.809 18.5 231.329 18.692C230.873 18.86 230.537 19.1 230.321 19.412C230.129 19.724 230.033 20.108 230.033 20.564C230.033 21.356 230.309 22.004 230.861 22.508C231.413 23.012 232.181 23.264 233.165 23.264C233.957 23.264 234.653 23.084 235.253 22.724C235.877 22.34 236.369 21.824 236.729 21.176C237.089 20.528 237.269 19.784 237.269 18.944V14.804C237.269 13.604 237.005 12.74 236.477 12.212C235.949 11.684 235.061 11.42 233.813 11.42C232.829 11.42 231.821 11.576 230.789 11.888C229.757 12.176 228.713 12.632 227.657 13.256L226.361 10.196C226.985 9.764 227.717 9.392 228.557 9.08C229.421 8.744 230.321 8.492 231.257 8.324C232.217 8.132 233.117 8.036 233.957 8.036C235.685 8.036 237.101 8.3 238.205 8.828C239.333 9.356 240.173 10.16 240.725 11.24C241.277 12.296 241.553 13.664 241.553 15.344V26H237.341V22.256H237.629C237.461 23.096 237.125 23.828 236.621 24.452C236.141 25.052 235.529 25.52 234.785 25.856C234.041 26.192 233.189 26.36 232.229 26.36ZM253.356 26.36C251.508 26.36 249.9 25.988 248.532 25.244C247.164 24.476 246.108 23.396 245.364 22.004C244.62 20.612 244.248 18.98 244.248 17.108C244.248 15.236 244.62 13.628 245.364 12.284C246.108 10.916 247.164 9.872 248.532 9.152C249.9 8.408 251.508 8.036 253.356 8.036C254.484 8.036 255.6 8.216 256.704 8.576C257.808 8.936 258.72 9.44 259.44 10.088L258.108 13.22C257.484 12.668 256.776 12.248 255.984 11.96C255.216 11.672 254.472 11.528 253.752 11.528C252.192 11.528 250.98 12.02 250.116 13.004C249.276 13.964 248.856 15.344 248.856 17.144C248.856 18.92 249.276 20.324 250.116 21.356C250.98 22.364 252.192 22.868 253.752 22.868C254.448 22.868 255.192 22.724 255.984 22.436C256.776 22.148 257.484 21.716 258.108 21.14L259.44 24.308C258.72 24.932 257.796 25.436 256.668 25.82C255.564 26.18 254.46 26.36 253.356 26.36ZM269.435 26.36C267.083 26.36 265.331 25.772 264.179 24.596C263.027 23.42 262.451 21.704 262.451 19.448V11.78H259.067V8.396H262.451V3.14H266.951V8.396H272.279V11.78H266.951V19.196C266.951 20.348 267.203 21.212 267.707 21.788C268.211 22.364 269.027 22.652 270.155 22.652C270.491 22.652 270.839 22.616 271.199 22.544C271.559 22.448 271.931 22.352 272.315 22.256L272.999 25.568C272.567 25.808 272.015 26 271.343 26.144C270.695 26.288 270.059 26.36 269.435 26.36ZM3.132 57V31.62H6.084V42.852H21.312V31.62H24.264V57H21.312V45.408H6.084V57H3.132ZM39.6267 57.324C36.3147 57.324 33.7827 56.448 32.0307 54.696C30.3027 52.92 29.4387 50.34 29.4387 46.956V31.62H32.3907V46.812C32.3907 49.452 33.0027 51.432 34.2267 52.752C35.4507 54.048 37.2507 54.696 39.6267 54.696C42.0027 54.696 43.7907 54.048 44.9907 52.752C46.1907 51.432 46.7907 49.452 46.7907 46.812V31.62H49.7427V46.956C49.7427 50.34 48.8787 52.92 47.1507 54.696C45.4467 56.448 42.9387 57.324 39.6267 57.324ZM54.9101 57V31.62H65.0621C67.6541 31.62 69.6701 32.196 71.1101 33.348C72.5501 34.5 73.2701 36.132 73.2701 38.244C73.2701 39.828 72.8021 41.148 71.8661 42.204C70.9541 43.26 69.7061 43.956 68.1221 44.292V43.788C69.3221 43.932 70.3541 44.28 71.2181 44.832C72.0821 45.36 72.7421 46.068 73.1981 46.956C73.6541 47.82 73.8821 48.84 73.8821 50.016C73.8821 51.528 73.5461 52.812 72.8741 53.868C72.2261 54.9 71.2781 55.68 70.0301 56.208C68.7821 56.736 67.2701 57 65.4941 57H54.9101ZM57.7901 54.624H65.2061C65.9741 54.624 66.6581 54.564 67.2581 54.444C67.8821 54.324 68.4221 54.144 68.8781 53.904C69.3341 53.64 69.7181 53.328 70.0301 52.968C70.3421 52.608 70.5701 52.176 70.7141 51.672C70.8821 51.168 70.9661 50.604 70.9661 49.98C70.9661 49.332 70.8821 48.768 70.7141 48.288C70.5701 47.784 70.3421 47.352 70.0301 46.992C69.7181 46.608 69.3341 46.296 68.8781 46.056C68.4221 45.816 67.8821 45.636 67.2581 45.516C66.6581 45.396 65.9741 45.336 65.2061 45.336H57.7901V54.624ZM57.7901 42.96H64.6301C66.5021 42.96 67.9181 42.576 68.8781 41.808C69.8621 41.04 70.3541 39.936 70.3541 38.496C70.3541 37.008 69.8621 35.892 68.8781 35.148C67.9181 34.38 66.5021 33.996 64.6301 33.996H57.7901V42.96Z" fill="#00B2CD"/>
</svg>
