<svg width="39" height="32" viewBox="0 0 39 32" fill="none" xmlns="http://www.w3.org/2000/svg">
<path d="M38.8502 4.1874C37.4491 4.80826 35.9439 5.22775 34.3616 5.41736C35.9942 4.44043 37.2157 2.90285 37.7981 1.09152C36.2641 2.00265 34.5853 2.64399 32.8346 2.98764C31.6573 1.73061 30.0979 0.897425 28.3986 0.61745C26.6992 0.337475 24.955 0.626373 23.4366 1.43929C21.9183 2.25221 20.7108 3.54366 20.0016 5.11315C19.2925 6.68264 19.1213 8.44235 19.5148 10.1191C16.4066 9.96301 13.366 9.15515 10.5903 7.74792C7.81456 6.34069 5.36574 4.36554 3.40277 1.95065C2.73158 3.10846 2.34564 4.45085 2.34564 5.88049C2.34489 7.16749 2.66183 8.43478 3.26833 9.56992C3.87483 10.7051 4.75214 11.6729 5.82242 12.3877C4.58118 12.3482 3.36732 12.0128 2.28188 11.4094V11.5101C2.28175 13.3152 2.90614 15.0647 4.0491 16.4618C5.19206 17.859 6.78319 18.8176 8.5525 19.1751C7.40104 19.4868 6.19382 19.5327 5.02202 19.3094C5.52122 20.8626 6.49361 22.2207 7.80306 23.1938C9.11251 24.1669 10.6935 24.7061 12.3246 24.736C9.55565 26.9097 6.13601 28.0887 2.6158 28.0836C1.99222 28.0837 1.36918 28.0473 0.749878 27.9745C4.3231 30.2719 8.4826 31.4912 12.7307 31.4865C27.111 31.4865 34.9723 19.5762 34.9723 9.24652C34.9723 8.91092 34.964 8.57197 34.9489 8.23638C36.478 7.13054 37.7979 5.76118 38.8468 4.19244L38.8502 4.1874Z" fill="#00B2CD"/>
</svg>
